<svg version="1.1" id="Layer_1" xmlns="http://www.w3.org/2000/svg" xmlns:xlink="http://www.w3.org/1999/xlink" x="0px" y="0px"
	 width="100%" viewBox="0 0 714 286" enable-background="new 0 0 714 286" xml:space="preserve">
<path fill="#F6F6F6" opacity="1.000000" stroke="none" 
	d="
M491.000000,287.000000 
	C327.333374,287.000000 164.166748,287.000000 1.000087,287.000000 
	C1.000058,191.666733 1.000058,96.333458 1.000029,1.000139 
	C238.999878,1.000093 476.999756,1.000093 714.999756,1.000046 
	C714.999817,96.333191 714.999817,191.666382 714.999878,286.999786 
	C640.500000,287.000000 566.000000,287.000000 491.000000,287.000000 
M478.328339,177.123093 
	C478.852386,176.974899 479.376404,176.826706 480.659393,176.821457 
	C481.417877,176.720337 482.176392,176.619217 483.632599,176.740143 
	C487.941833,176.170670 489.315399,173.082062 489.631714,169.375183 
	C489.871552,166.564087 489.812531,163.708420 489.652008,160.885910 
	C489.218903,153.270584 487.106689,151.355865 479.378479,151.335175 
	C471.549561,151.314224 463.719696,151.228165 455.892242,151.328842 
	C452.901367,151.367294 451.669006,150.257599 451.803497,147.224060 
	C451.965668,143.566925 451.803070,139.896484 451.837189,136.232330 
	C451.896179,129.903091 452.127716,129.685150 458.246094,129.681381 
	C466.241760,129.676453 474.237885,129.616104 482.233032,129.679291 
	C497.122253,129.796967 498.725067,129.536758 497.386230,111.390564 
	C497.010681,106.300789 494.054810,104.084839 489.082611,104.152367 
	C484.919189,104.208908 480.753754,104.109238 476.590027,104.154739 
	C473.826904,104.184929 472.033203,102.653214 472.901215,100.208771 
	C474.469025,95.793419 475.868286,90.689377 479.027100,87.600159 
	C485.386444,81.381012 492.877106,76.317924 499.906555,70.784943 
	C508.449646,64.060577 516.381409,56.818729 521.006775,46.652306 
	C522.571411,43.213207 522.981262,39.992897 520.256287,36.921864 
	C516.382568,32.556293 512.275269,33.161888 507.326111,39.744080 
	C499.708649,49.874996 490.099152,56.968853 478.176392,61.243198 
	C462.313354,66.930153 447.321533,64.745720 433.333618,56.109089 
	C427.474060,52.491215 422.424683,47.510311 417.210083,42.918419 
	C414.226318,40.290962 410.715881,38.990009 407.764832,41.360661 
	C405.755615,42.974728 404.663361,46.503822 404.425964,49.284573 
	C404.260773,51.219357 405.830231,53.731186 407.335236,55.306435 
	C414.417084,62.718857 421.709442,69.932083 428.996948,77.145378 
	C433.545288,81.647438 435.362946,89.211441 431.755554,94.738777 
	C424.629639,105.657364 423.726562,117.944778 423.491669,130.168243 
	C422.992493,156.144958 423.257019,182.137253 423.295746,208.123032 
	C423.316589,222.091141 423.477417,222.783936 437.159515,223.320999 
	C447.234009,223.716446 452.423157,223.694366 451.872437,209.948227 
	C451.499329,200.635757 451.759369,191.294876 451.877167,181.968491 
	C451.899384,180.208771 452.585449,178.457428 453.898590,176.844727 
	C461.964142,176.790314 470.029724,176.735886 478.328339,177.123093 
M665.230469,31.344284 
	C664.551758,31.009212 663.873108,30.674141 662.926880,29.694860 
	C660.882629,27.882015 646.107544,25.969158 643.723511,27.291948 
	C643.238770,27.560881 642.644043,28.356688 642.734741,28.770683 
	C642.877991,29.425180 643.442932,30.246941 644.035645,30.485540 
	C645.046631,30.892502 646.217529,30.902157 647.569580,31.118427 
	C647.569580,34.528820 647.447144,37.665359 647.648804,40.780926 
	C647.704773,41.645451 648.722412,42.447723 649.298828,43.278545 
	C649.904724,42.468410 650.979797,41.688038 651.033447,40.842873 
	C651.239014,37.602909 651.116577,34.342140 651.116577,31.127491 
	C653.439270,30.711758 655.127380,30.409609 657.082764,30.059628 
	C657.082764,33.806366 656.974670,37.296307 657.161011,40.770420 
	C657.205994,41.608097 658.225708,42.393482 658.797119,43.202950 
	C659.382263,42.379242 660.383911,41.597572 660.472107,40.723705 
	C660.708191,38.384754 660.552551,36.006279 660.552551,32.721500 
	C662.681458,34.384975 663.821655,35.275867 664.906494,36.123524 
	C666.442017,35.354801 667.786804,34.681568 669.759460,33.694004 
	C669.759460,36.772404 669.623352,39.094086 669.845093,41.381031 
	C669.909058,42.039932 671.003723,42.598873 671.625793,43.203640 
	C672.130920,42.654156 673.060425,42.115177 673.074402,41.553543 
	C673.191528,36.821983 673.141174,32.086277 673.141174,27.351816 
	C672.628906,27.085386 672.116699,26.818954 671.604431,26.552525 
	C669.734253,28.140081 667.864136,29.727636 665.230469,31.344284 
M254.586105,108.008194 
	C253.653900,109.957077 252.569290,111.848740 251.812759,113.863586 
	C242.973343,137.405029 234.184814,160.965576 225.379395,184.519791 
	C221.707169,194.342926 217.952332,204.136032 214.378082,213.994644 
	C212.249680,219.865234 214.203903,222.633255 220.347961,222.739059 
	C224.679306,222.813644 229.015488,222.649551 233.345367,222.757736 
	C237.889862,222.871292 240.453690,220.617783 241.720398,216.431396 
	C242.974136,212.287903 244.467834,208.214264 245.630997,204.047089 
	C246.388397,201.333511 247.896271,200.375031 250.679657,200.404251 
	C262.010773,200.523178 273.344513,200.542267 284.675385,200.420746 
	C287.505737,200.390396 288.818054,201.399323 289.599884,204.107758 
	C290.891785,208.583038 292.761353,212.889801 294.101196,217.353516 
	C295.314270,221.394913 297.932678,222.858963 301.938110,222.765076 
	C306.768311,222.651840 311.604248,222.805679 316.436035,222.732468 
	C321.869476,222.650162 323.339874,220.808243 322.191376,215.578491 
	C321.836365,213.961807 321.290894,212.373901 320.697479,210.824570 
	C308.908600,180.044479 297.131378,149.259842 285.281494,118.503212 
	C279.569214,103.676834 276.100159,101.669205 260.321594,104.217773 
	C258.419800,104.524956 256.752075,106.281532 254.586105,108.008194 
M31.241459,174.499878 
	C31.233864,187.819427 31.198818,201.139053 31.230032,214.458511 
	C31.246107,221.317398 32.670242,222.728470 39.371677,222.777817 
	C42.867825,222.803558 46.364353,222.787308 49.860676,222.778030 
	C57.487579,222.757812 59.317894,220.987228 59.351444,213.403076 
	C59.382370,206.412857 59.473831,199.416840 59.232639,192.433929 
	C59.099636,188.583435 60.743614,187.505157 64.279411,187.711166 
	C68.096672,187.933594 71.938873,187.896988 75.764282,187.779984 
	C88.979446,187.375748 101.124390,183.340836 109.554588,173.071136 
	C119.885109,160.486496 121.979240,145.618439 116.283669,130.233978 
	C110.534554,114.704857 98.283340,106.762703 82.466843,105.324593 
	C68.753403,104.077698 54.870232,104.636925 41.061050,104.526573 
	C32.968636,104.461891 31.340380,106.037529 31.304939,114.063362 
	C31.217453,133.875229 31.261698,153.687653 31.241459,174.499878 
M316.026581,127.600914 
	C324.640045,143.179871 333.410858,158.675446 341.744232,174.402802 
	C343.578735,177.864975 344.551575,182.119873 344.722168,186.061615 
	C345.153656,196.030396 344.861847,206.029068 344.945190,216.015045 
	C344.981628,220.377258 347.017517,222.850250 351.695679,222.752182 
	C356.023682,222.661438 360.356628,222.827972 364.686005,222.772720 
	C370.622284,222.696960 372.475861,220.895172 372.523682,215.018295 
	C372.610413,204.359344 372.481323,193.697128 372.708099,183.041946 
	C372.762482,180.485931 373.365387,177.686829 374.562714,175.453430 
	C380.145111,165.040329 386.020813,154.784393 391.798248,144.475952 
	C397.816040,133.738632 403.886963,123.030731 409.839478,112.257378 
	C411.998779,108.349327 410.941193,104.723831 407.265656,104.452087 
	C400.980042,103.987373 394.609314,103.987640 388.333099,104.505211 
	C386.484650,104.657654 384.342102,106.899895 383.185913,108.724136 
	C379.804626,114.059052 376.846710,119.662697 373.734100,125.167358 
	C368.866272,133.776199 364.007629,142.390228 358.931152,151.380966 
	C358.063751,150.290741 357.472260,149.722061 357.087097,149.037338 
	C349.747681,135.989639 342.314545,122.992157 335.188446,109.828568 
	C333.200073,106.155540 330.510437,104.261940 326.556641,104.146759 
	C321.730988,104.006172 316.891296,103.977257 312.069397,104.179588 
	C307.106415,104.387833 305.444641,106.909363 307.545319,111.510086 
	C309.958679,116.795631 312.917267,121.832222 316.026581,127.600914 
M175.501617,197.005020 
	C171.670303,197.002670 167.819458,196.756973 164.012894,197.062759 
	C159.755646,197.404785 158.201904,196.143295 158.280502,191.554306 
	C158.574310,174.401337 158.431976,157.240829 158.447464,140.083160 
	C158.455887,130.755585 158.546829,121.426727 158.420288,112.100883 
	C158.341553,106.298012 156.303314,104.325729 150.545593,104.121124 
	C146.885788,103.991066 143.217575,104.035347 139.554153,104.082100 
	C131.904587,104.179703 130.129166,105.963181 130.112228,113.567307 
	C130.087387,124.728394 130.093231,135.889572 130.096649,147.050705 
	C130.103500,169.372635 130.079376,191.694687 130.153702,214.016418 
	C130.173935,220.095093 132.222092,222.663956 137.376999,222.695099 
	C157.365860,222.815918 177.355881,222.746536 197.345459,222.755493 
	C201.432831,222.757324 203.545074,220.705368 203.602417,216.652283 
	C203.663666,212.322067 203.534546,207.988724 203.621933,203.659424 
	C203.714569,199.069458 201.642120,196.930603 196.990265,197.003113 
	C190.162277,197.109528 183.331070,197.009842 175.501617,197.005020 
M562.500000,104.294930 
	C547.504517,104.284111 532.509033,104.242386 517.513672,104.278046 
	C511.712646,104.291840 509.302582,106.664787 509.159058,112.394142 
	C509.071472,115.890343 509.062744,119.394539 509.194336,122.888527 
	C509.328705,126.456581 510.778351,128.994553 514.843201,129.076050 
	C522.327271,129.226074 529.820618,129.688278 537.291382,129.445053 
	C542.104797,129.288330 543.538940,130.822205 543.495789,135.658768 
	C543.276062,160.315567 543.384949,184.975510 543.438416,209.634216 
	C543.443848,212.115860 543.890991,214.593872 544.061401,217.078476 
	C544.347473,221.250061 546.801392,222.866974 550.704285,222.872665 
	C554.369568,222.878021 558.034973,222.930832 561.700195,222.920471 
	C570.879822,222.894516 572.687927,220.997513 572.686279,211.736832 
	C572.681885,186.411926 572.876465,161.085358 572.609009,135.763489 
	C572.553101,130.470428 574.321899,129.102158 579.193359,129.480392 
	C583.997314,129.853378 588.850891,129.585754 593.682739,129.601837 
	C607.975220,129.649460 608.752502,128.888428 608.716370,114.871010 
	C608.694763,106.482910 606.611694,104.369270 597.989197,104.321320 
	C586.493103,104.257393 574.996399,104.301346 562.500000,104.294930 
M647.560669,188.496719 
	C647.589233,178.022034 647.620911,167.547333 647.645081,157.072647 
	C647.658875,151.088440 646.993530,150.465698 640.608887,150.430908 
	C633.397339,150.391617 632.708252,150.950821 632.695496,157.240891 
	C632.668518,170.540695 632.696106,183.840576 632.681763,197.140411 
	C632.670959,207.181824 628.641479,210.291794 618.824951,207.806213 
	C617.385315,207.441696 616.049011,206.606781 614.601318,206.355576 
	C613.385376,206.144577 611.738647,206.001938 610.868591,206.634750 
	C607.306763,209.225204 608.637878,218.995667 612.703613,220.733185 
	C619.559387,223.662994 626.701843,223.913315 633.697449,221.754410 
	C641.332336,219.398224 646.076477,213.926880 647.016357,205.920822 
	C647.652893,200.498840 647.410095,194.973633 647.560669,188.496719 
M683.352905,179.755524 
	C684.659241,179.187637 687.033691,178.715240 687.094421,178.036011 
	C687.428711,174.296829 687.197449,170.507065 687.160217,166.734665 
	C683.996582,166.786697 680.820984,166.699921 677.675964,166.968918 
	C676.629028,167.058456 675.719116,168.245453 674.638000,168.589584 
	C673.677795,168.895279 672.548218,168.875320 671.526245,168.743866 
	C667.877930,168.274612 664.241821,167.344193 660.605042,167.362396 
	C659.426575,167.368286 657.262024,169.735626 657.240173,171.050919 
	C656.980286,186.690506 656.944702,202.336838 657.182617,217.976364 
	C657.203613,219.355011 659.331909,221.220673 660.899231,221.908890 
	C662.428101,222.580292 664.497498,221.941467 666.321289,222.036545 
	C670.494629,222.254089 671.736084,220.284119 671.598389,216.249344 
	C671.325989,208.271042 671.508057,200.276978 671.515503,192.289429 
	C671.523926,183.247330 673.232239,181.325867 683.352905,179.755524 
M478.854736,51.304630 
	C482.792145,44.689903 485.112854,38.342743 481.597839,30.245094 
	C478.079865,22.140598 468.648346,17.943092 462.060516,18.283987 
	C454.463715,18.677088 446.551819,25.094614 444.361298,32.397564 
	C441.863586,40.724770 445.346405,50.726910 452.155945,54.782734 
	C460.614136,59.820526 471.331940,58.621017 478.854736,51.304630 
M704.814941,211.752319 
	C704.029541,207.506195 702.132568,203.629349 697.451355,203.697662 
	C694.575195,203.739624 691.017456,205.326462 689.043762,207.422836 
	C686.223633,210.418243 686.624695,214.513931 689.011841,218.056641 
	C691.272339,221.411285 694.617920,221.955963 698.281982,221.320267 
	C703.189087,220.468872 704.326416,216.720627 704.814941,211.752319 
z"/>
<path fill="#345A82" opacity="1.000000" stroke="none" 
	d="
M254.780975,107.687263 
	C256.752075,106.281532 258.419800,104.524956 260.321594,104.217773 
	C276.100159,101.669205 279.569214,103.676834 285.281494,118.503212 
	C297.131378,149.259842 308.908600,180.044479 320.697479,210.824570 
	C321.290894,212.373901 321.836365,213.961807 322.191376,215.578491 
	C323.339874,220.808243 321.869476,222.650162 316.436035,222.732468 
	C311.604248,222.805679 306.768311,222.651840 301.938110,222.765076 
	C297.932678,222.858963 295.314270,221.394913 294.101196,217.353516 
	C292.761353,212.889801 290.891785,208.583038 289.599884,204.107758 
	C288.818054,201.399323 287.505737,200.390396 284.675385,200.420746 
	C273.344513,200.542267 262.010773,200.523178 250.679657,200.404251 
	C247.896271,200.375031 246.388397,201.333511 245.630997,204.047089 
	C244.467834,208.214264 242.974136,212.287903 241.720398,216.431396 
	C240.453690,220.617783 237.889862,222.871292 233.345367,222.757736 
	C229.015488,222.649551 224.679306,222.813644 220.347961,222.739059 
	C214.203903,222.633255 212.249680,219.865234 214.378082,213.994644 
	C217.952332,204.136032 221.707169,194.342926 225.379395,184.519791 
	C234.184814,160.965576 242.973343,137.405029 251.812759,113.863586 
	C252.569290,111.848740 253.653900,109.957077 254.780975,107.687263 
M266.778656,141.479416 
	C262.737854,153.679947 258.697052,165.880478 254.474640,178.629364 
	C263.956848,178.629364 272.247833,178.629364 280.779541,178.629364 
	C276.788971,165.995453 272.968994,153.842377 269.049530,141.721436 
	C268.901672,141.264114 267.789917,141.118500 266.778656,141.479416 
z"/>
<path fill="#345A82" opacity="1.000000" stroke="none" 
	d="
M31.247227,173.999878 
	C31.261698,153.687653 31.217453,133.875229 31.304939,114.063362 
	C31.340380,106.037529 32.968636,104.461891 41.061050,104.526573 
	C54.870232,104.636925 68.753403,104.077698 82.466843,105.324593 
	C98.283340,106.762703 110.534554,114.704857 116.283669,130.233978 
	C121.979240,145.618439 119.885109,160.486496 109.554588,173.071136 
	C101.124390,183.340836 88.979446,187.375748 75.764282,187.779984 
	C71.938873,187.896988 68.096672,187.933594 64.279411,187.711166 
	C60.743614,187.505157 59.099636,188.583435 59.232639,192.433929 
	C59.473831,199.416840 59.382370,206.412857 59.351444,213.403076 
	C59.317894,220.987228 57.487579,222.757812 49.860676,222.778030 
	C46.364353,222.787308 42.867825,222.803558 39.371677,222.777817 
	C32.670242,222.728470 31.246107,221.317398 31.230032,214.458511 
	C31.198818,201.139053 31.233864,187.819427 31.247227,173.999878 
M69.409584,128.216751 
	C67.082520,128.204590 64.669449,127.817619 62.461430,128.324280 
	C61.186871,128.616730 59.324501,130.327499 59.294983,131.441467 
	C59.039665,141.075867 59.066513,150.721146 59.249203,160.358612 
	C59.267841,161.341827 60.854939,163.123550 61.722195,163.128479 
	C67.518875,163.161407 73.385429,163.278534 79.095688,162.448776 
	C84.199432,161.707138 87.499619,157.946213 89.308350,153.159286 
	C94.662781,138.988373 86.612564,128.455383 69.409584,128.216751 
z"/>
<path fill="#355B82" opacity="1.000000" stroke="none" 
	d="
M315.832794,127.288925 
	C312.917267,121.832222 309.958679,116.795631 307.545319,111.510086 
	C305.444641,106.909363 307.106415,104.387833 312.069397,104.179588 
	C316.891296,103.977257 321.730988,104.006172 326.556641,104.146759 
	C330.510437,104.261940 333.200073,106.155540 335.188446,109.828568 
	C342.314545,122.992157 349.747681,135.989639 357.087097,149.037338 
	C357.472260,149.722061 358.063751,150.290741 358.931152,151.380966 
	C364.007629,142.390228 368.866272,133.776199 373.734100,125.167358 
	C376.846710,119.662697 379.804626,114.059052 383.185913,108.724136 
	C384.342102,106.899895 386.484650,104.657654 388.333099,104.505211 
	C394.609314,103.987640 400.980042,103.987373 407.265656,104.452087 
	C410.941193,104.723831 411.998779,108.349327 409.839478,112.257378 
	C403.886963,123.030731 397.816040,133.738632 391.798248,144.475952 
	C386.020813,154.784393 380.145111,165.040329 374.562714,175.453430 
	C373.365387,177.686829 372.762482,180.485931 372.708099,183.041946 
	C372.481323,193.697128 372.610413,204.359344 372.523682,215.018295 
	C372.475861,220.895172 370.622284,222.696960 364.686005,222.772720 
	C360.356628,222.827972 356.023682,222.661438 351.695679,222.752182 
	C347.017517,222.850250 344.981628,220.377258 344.945190,216.015045 
	C344.861847,206.029068 345.153656,196.030396 344.722168,186.061615 
	C344.551575,182.119873 343.578735,177.864975 341.744232,174.402802 
	C333.410858,158.675446 324.640045,143.179871 315.832794,127.288925 
z"/>
<path fill="#355B82" opacity="1.000000" stroke="none" 
	d="
M176.001434,197.001495 
	C183.331070,197.009842 190.162277,197.109528 196.990265,197.003113 
	C201.642120,196.930603 203.714569,199.069458 203.621933,203.659424 
	C203.534546,207.988724 203.663666,212.322067 203.602417,216.652283 
	C203.545074,220.705368 201.432831,222.757324 197.345459,222.755493 
	C177.355881,222.746536 157.365860,222.815918 137.376999,222.695099 
	C132.222092,222.663956 130.173935,220.095093 130.153702,214.016418 
	C130.079376,191.694687 130.103500,169.372635 130.096649,147.050705 
	C130.093231,135.889572 130.087387,124.728394 130.112228,113.567307 
	C130.129166,105.963181 131.904587,104.179703 139.554153,104.082100 
	C143.217575,104.035347 146.885788,103.991066 150.545593,104.121124 
	C156.303314,104.325729 158.341553,106.298012 158.420288,112.100883 
	C158.546829,121.426727 158.455887,130.755585 158.447464,140.083160 
	C158.431976,157.240829 158.574310,174.401337 158.280502,191.554306 
	C158.201904,196.143295 159.755646,197.404785 164.012894,197.062759 
	C167.819458,196.756973 171.670303,197.002670 176.001434,197.001495 
z"/>
<path fill="#E4A276" opacity="1.000000" stroke="none" 
	d="
M452.965210,176.702225 
	C452.585449,178.457428 451.899384,180.208771 451.877167,181.968491 
	C451.759369,191.294876 451.499329,200.635757 451.872437,209.948227 
	C452.423157,223.694366 447.234009,223.716446 437.159515,223.320999 
	C423.477417,222.783936 423.316589,222.091141 423.295746,208.123032 
	C423.257019,182.137253 422.992493,156.144958 423.491669,130.168243 
	C423.726562,117.944778 424.629639,105.657364 431.755554,94.738777 
	C435.362946,89.211441 433.545288,81.647438 428.996948,77.145378 
	C421.709442,69.932083 414.417084,62.718857 407.335236,55.306435 
	C405.830231,53.731186 404.260773,51.219357 404.425964,49.284573 
	C404.663361,46.503822 405.755615,42.974728 407.764832,41.360661 
	C410.715881,38.990009 414.226318,40.290962 417.210083,42.918419 
	C422.424683,47.510311 427.474060,52.491215 433.333618,56.109089 
	C447.321533,64.745720 462.313354,66.930153 478.176392,61.243198 
	C490.099152,56.968853 499.708649,49.874996 507.326111,39.744080 
	C512.275269,33.161888 516.382568,32.556293 520.256287,36.921864 
	C522.981262,39.992897 522.571411,43.213207 521.006775,46.652306 
	C516.381409,56.818729 508.449646,64.060577 499.906555,70.784943 
	C492.877106,76.317924 485.386444,81.381012 479.027100,87.600159 
	C475.868286,90.689377 474.469025,95.793419 472.901215,100.208771 
	C472.033203,102.653214 473.826904,104.184929 476.590027,104.154739 
	C480.753754,104.109238 484.919189,104.208908 489.082611,104.152367 
	C494.054810,104.084839 497.010681,106.300789 497.386230,111.390564 
	C498.725067,129.536758 497.122253,129.796967 482.233032,129.679291 
	C474.237885,129.616104 466.241760,129.676453 458.246094,129.681381 
	C452.127716,129.685150 451.896179,129.903091 451.837189,136.232330 
	C451.803070,139.896484 451.965668,143.566925 451.803497,147.224060 
	C451.669006,150.257599 452.901367,151.367294 455.892242,151.328842 
	C463.719696,151.228165 471.549561,151.314224 479.378479,151.335175 
	C487.106689,151.355865 489.218903,153.270584 489.652008,160.885910 
	C489.812531,163.708420 489.871552,166.564087 489.631714,169.375183 
	C489.315399,173.082062 487.941833,176.170670 483.341461,176.348969 
	C483.697632,174.969269 484.344971,173.980759 485.233521,172.822388 
	C485.650665,172.102814 485.826538,171.553070 486.013794,170.669098 
	C486.018250,169.889053 486.011353,169.443222 486.014221,168.575775 
	C486.338318,165.443832 486.652679,162.733521 486.985840,159.654541 
	C486.678558,158.177963 486.352478,157.070068 485.775604,155.667236 
	C483.471436,154.912903 481.424805,154.095947 479.363464,154.056870 
	C471.081818,153.899841 462.795593,153.974350 454.511078,153.982162 
	C450.234344,153.986206 447.956024,151.861282 448.084747,147.603104 
	C448.223907,142.997620 448.862244,138.402405 448.895050,133.799927 
	C448.925629,129.516525 450.891785,127.744171 455.457764,127.959274 
	C466.170807,127.988777 476.415955,128.070175 486.657349,127.910103 
	C488.146545,127.886826 489.617706,126.708748 491.351562,125.936226 
	C492.091003,125.235870 492.576111,124.664314 493.445190,124.013992 
	C497.326538,120.295425 496.891144,112.252762 493.009705,108.988739 
	C493.000000,108.999695 493.022614,108.981842 492.979675,108.659195 
	C492.284058,107.897545 491.631409,107.458542 490.515808,107.006813 
	C484.998718,106.675575 479.947083,106.177940 474.889435,106.106056 
	C471.877991,106.063248 470.250519,104.958939 469.900391,101.750824 
	C469.910461,101.332275 469.897095,101.164734 469.901367,100.662399 
	C469.931702,99.880791 469.944458,99.433968 470.250488,98.734879 
	C470.698425,96.656677 470.853119,94.830742 471.003906,93.002403 
	C471.000000,93.000000 471.005341,93.006172 471.295837,92.868401 
	C472.074890,91.830582 472.563477,90.930527 473.317627,89.822556 
	C477.182587,80.991920 485.836029,77.697411 492.536560,72.702347 
	C500.873199,66.487526 508.513855,59.867855 514.612488,51.542423 
	C516.386230,49.121044 517.432373,46.067863 518.343567,43.157631 
	C518.760925,41.824360 518.449097,39.081535 517.762451,38.818279 
	C516.093628,38.178478 513.865662,38.178741 512.141541,38.754845 
	C510.709320,39.233406 509.387970,40.715179 508.511932,42.071815 
	C504.473480,48.325562 498.598877,52.469898 492.782776,56.869793 
	C482.965973,64.296204 471.667267,66.874954 459.934937,66.791321 
	C448.946350,66.712997 437.988281,64.841362 429.067596,57.336288 
	C424.734192,53.690578 418.968201,51.724846 416.284210,46.059998 
	C415.713440,44.855339 413.542786,43.664886 412.200653,43.759899 
	C410.564606,43.875721 408.533508,45.012466 407.595520,46.352985 
	C406.809143,47.476852 406.618042,50.220219 407.414215,51.058266 
	C413.810242,57.791054 420.216156,64.567909 427.178864,70.695221 
	C435.613190,78.117630 438.597656,87.920944 433.653717,97.685478 
	C428.757385,107.355858 426.475830,117.777603 426.238159,128.210739 
	C425.582153,157.005707 425.913086,185.825378 426.134277,214.633133 
	C426.149048,216.558197 428.278900,219.869507 429.820892,220.122375 
	C434.826538,220.943344 440.018219,220.748703 445.133667,220.664932 
	C445.987732,220.650940 447.304962,219.377808 447.570709,218.447311 
	C448.411224,215.504501 449.339447,212.452240 449.364532,209.435104 
	C449.456940,198.326065 449.199097,187.214096 449.303833,176.079681 
	C449.534668,176.056122 449.997192,176.018280 450.373840,176.010452 
	C451.501678,175.935944 452.252899,175.869278 453.011963,176.028275 
	C453.019836,176.253937 452.965210,176.702225 452.965210,176.702225 
z"/>
<path fill="#E69765" opacity="1.000000" stroke="none" 
	d="
M563.000000,104.296944 
	C574.996399,104.301346 586.493103,104.257393 597.989197,104.321320 
	C606.611694,104.369270 608.694763,106.482910 608.716370,114.871010 
	C608.752502,128.888428 607.975220,129.649460 593.682739,129.601837 
	C588.850891,129.585754 583.997314,129.853378 579.193359,129.480392 
	C574.321899,129.102158 572.553101,130.470428 572.609009,135.763489 
	C572.876465,161.085358 572.681885,186.411926 572.686279,211.736832 
	C572.687927,220.997513 570.879822,222.894516 561.700195,222.920471 
	C558.034973,222.930832 554.369568,222.878021 550.704285,222.872665 
	C546.801392,222.866974 544.347473,221.250061 544.061401,217.078476 
	C543.890991,214.593872 543.443848,212.115860 543.438416,209.634216 
	C543.384949,184.975510 543.276062,160.315567 543.495789,135.658768 
	C543.538940,130.822205 542.104797,129.288330 537.291382,129.445053 
	C529.820618,129.688278 522.327271,129.226074 514.843201,129.076050 
	C510.778351,128.994553 509.328705,126.456581 509.194336,122.888527 
	C509.062744,119.394539 509.071472,115.890343 509.159058,112.394142 
	C509.302582,106.664787 511.712646,104.291840 517.513672,104.278046 
	C532.509033,104.242386 547.504517,104.284111 563.000000,104.296944 
M552.955017,219.978317 
	C555.785950,219.991394 558.617065,220.033768 561.447693,220.011642 
	C568.002258,219.960434 569.020508,218.947159 569.021423,212.543167 
	C569.024902,188.394928 569.024048,164.246704 569.027344,140.098465 
	C569.029053,127.813332 570.617798,126.240417 583.225525,126.035286 
	C584.390991,126.016319 585.560913,126.093536 586.722168,126.020752 
	C591.677429,125.710121 596.645874,125.495605 601.572449,124.925507 
	C602.754395,124.788727 604.664429,123.503296 604.747925,122.607170 
	C605.101196,118.815422 605.214722,114.927116 604.701843,111.171646 
	C604.536438,109.960258 602.297363,108.384834 600.807129,108.126007 
	C596.749817,107.421280 592.582825,107.012024 588.464539,107.050323 
	C566.018982,107.259048 543.575378,107.667854 521.130310,107.942574 
	C512.916992,108.043106 512.157776,108.700546 511.982208,116.999657 
	C511.950531,118.495972 511.759247,120.063866 512.119812,121.476715 
	C512.726013,123.852242 513.202454,125.699570 517.002319,125.434525 
	C524.071167,124.941467 531.231201,125.770927 538.353943,126.029892 
	C544.120789,126.239571 545.969910,128.125427 545.972778,133.975372 
	C545.985474,159.955566 546.113220,185.937012 545.867737,211.914871 
	C545.821716,216.784424 547.045349,219.507370 552.955017,219.978317 
z"/>
<path fill="#3A5C82" opacity="1.000000" stroke="none" 
	d="
M647.560669,188.995667 
	C647.410095,194.973633 647.652893,200.498840 647.016357,205.920822 
	C646.076477,213.926880 641.332336,219.398224 633.697449,221.754410 
	C626.701843,223.913315 619.559387,223.662994 612.703613,220.733185 
	C608.637878,218.995667 607.306763,209.225204 610.868591,206.634750 
	C611.738647,206.001938 613.385376,206.144577 614.601318,206.355576 
	C616.049011,206.606781 617.385315,207.441696 618.824951,207.806213 
	C628.641479,210.291794 632.670959,207.181824 632.681763,197.140411 
	C632.696106,183.840576 632.668518,170.540695 632.695496,157.240891 
	C632.708252,150.950821 633.397339,150.391617 640.608887,150.430908 
	C646.993530,150.465698 647.658875,151.088440 647.645081,157.072647 
	C647.620911,167.547333 647.589233,178.022034 647.560669,188.995667 
z"/>
<path fill="#3A5C82" opacity="1.000000" stroke="none" 
	d="
M682.947632,179.796844 
	C673.232239,181.325867 671.523926,183.247330 671.515503,192.289429 
	C671.508057,200.276978 671.325989,208.271042 671.598389,216.249344 
	C671.736084,220.284119 670.494629,222.254089 666.321289,222.036545 
	C664.497498,221.941467 662.428101,222.580292 660.899231,221.908890 
	C659.331909,221.220673 657.203613,219.355011 657.182617,217.976364 
	C656.944702,202.336838 656.980286,186.690506 657.240173,171.050919 
	C657.262024,169.735626 659.426575,167.368286 660.605042,167.362396 
	C664.241821,167.344193 667.877930,168.274612 671.526245,168.743866 
	C672.548218,168.875320 673.677795,168.895279 674.638000,168.589584 
	C675.719116,168.245453 676.629028,167.058456 677.675964,166.968918 
	C680.820984,166.699921 683.996582,166.786697 687.160217,166.734665 
	C687.197449,170.507065 687.428711,174.296829 687.094421,178.036011 
	C687.033691,178.715240 684.659241,179.187637 682.947632,179.796844 
z"/>
<path fill="#E39C6B" opacity="1.000000" stroke="none" 
	d="
M478.615112,51.576485 
	C471.331940,58.621017 460.614136,59.820526 452.155945,54.782734 
	C445.346405,50.726910 441.863586,40.724770 444.361298,32.397564 
	C446.551819,25.094614 454.463715,18.677088 462.060516,18.283987 
	C468.648346,17.943092 478.079865,22.140598 481.597839,30.245094 
	C485.112854,38.342743 482.792145,44.689903 478.615112,51.576485 
M465.260712,21.948887 
	C453.602539,21.974457 446.746613,28.316360 446.941833,38.894253 
	C447.102753,47.611145 453.058258,53.961948 462.054199,55.009678 
	C470.071442,55.943420 478.209564,50.194775 479.960205,42.361141 
	C482.058716,32.970921 475.814423,23.758184 465.260712,21.948887 
z"/>
<path fill="#2C2C2C" opacity="1.000000" stroke="none" 
	d="
M665.993958,31.315203 
	C667.864136,29.727636 669.734253,28.140081 671.604431,26.552525 
	C672.116699,26.818954 672.628906,27.085386 673.141174,27.351816 
	C673.141174,32.086277 673.191528,36.821983 673.074402,41.553543 
	C673.060425,42.115177 672.130920,42.654156 671.625793,43.203636 
	C671.003723,42.598873 669.909058,42.039932 669.845093,41.381031 
	C669.623352,39.094086 669.759460,36.772404 669.759460,33.694004 
	C667.786804,34.681568 666.442017,35.354801 664.906494,36.123524 
	C663.821655,35.275867 662.681458,34.384975 660.552551,32.721500 
	C660.552551,36.006279 660.708191,38.384754 660.472107,40.723705 
	C660.383911,41.597572 659.382263,42.379242 658.797119,43.202930 
	C658.225708,42.393482 657.205994,41.608097 657.161011,40.770420 
	C656.974670,37.296307 657.082764,33.806366 657.082764,30.059628 
	C655.127380,30.409609 653.439270,30.711758 651.116577,31.127491 
	C651.116577,34.342140 651.239014,37.602909 651.033447,40.842873 
	C650.979797,41.688038 649.904724,42.468410 649.298828,43.278549 
	C648.722412,42.447723 647.704773,41.645451 647.648804,40.780926 
	C647.447144,37.665359 647.569580,34.528820 647.569580,31.118427 
	C646.217529,30.902157 645.046631,30.892502 644.035645,30.485540 
	C643.442932,30.246941 642.877991,29.425180 642.734741,28.770683 
	C642.644043,28.356688 643.238770,27.560881 643.723511,27.291948 
	C646.107544,25.969158 660.882629,27.882015 663.034302,30.382252 
	C663.569824,31.650434 663.997925,32.231224 664.426025,32.812016 
	C664.948669,32.313084 665.471313,31.814148 665.993958,31.315203 
z"/>
<path fill="#416083" opacity="1.000000" stroke="none" 
	d="
M704.824646,212.146973 
	C704.326416,216.720627 703.189087,220.468872 698.281982,221.320267 
	C694.617920,221.955963 691.272339,221.411285 689.011841,218.056641 
	C686.624695,214.513931 686.223633,210.418243 689.043762,207.422836 
	C691.017456,205.326462 694.575195,203.739624 697.451355,203.697662 
	C702.132568,203.629349 704.029541,207.506195 704.824646,212.146973 
z"/>
<path fill="#EC8D50" opacity="1.000000" stroke="none" 
	d="
M453.431885,176.773468 
	C452.965210,176.702225 453.019836,176.253937 453.111755,175.674774 
	C454.057068,174.731689 454.898682,174.083450 455.765747,174.047333 
	C465.505646,173.641296 475.249512,173.329422 484.992279,172.992218 
	C484.344971,173.980759 483.697632,174.969269 482.992615,176.237946 
	C482.176392,176.619217 481.417877,176.720337 480.141846,176.575439 
	C479.114655,176.446777 478.604950,176.564133 478.095276,176.681488 
	C470.029724,176.735886 461.964142,176.790314 453.431885,176.773468 
z"/>
<path fill="#282828" opacity="1.000000" stroke="none" 
	d="
M665.612183,31.329748 
	C665.471313,31.814148 664.948669,32.313084 664.426025,32.812016 
	C663.997925,32.231224 663.569824,31.650434 663.168091,30.704357 
	C663.873108,30.674141 664.551758,31.009212 665.612183,31.329748 
z"/>
<path fill="#E4A276" opacity="1.000000" stroke="none" 
	d="
M478.211792,176.902283 
	C478.604950,176.564133 479.114655,176.446777 479.762390,176.503967 
	C479.376404,176.826706 478.852386,176.974899 478.211792,176.902283 
z"/>
<path fill="#E9EEF3" opacity="1.000000" stroke="none" 
	d="
M266.953003,141.153519 
	C267.789917,141.118500 268.901672,141.264114 269.049530,141.721436 
	C272.968994,153.842377 276.788971,165.995453 280.779541,178.629364 
	C272.247833,178.629364 263.956848,178.629364 254.474640,178.629364 
	C258.697052,165.880478 262.737854,153.679947 266.953003,141.153519 
z"/>
<path fill="#EEF1F4" opacity="1.000000" stroke="none" 
	d="
M69.875999,128.235413 
	C86.612564,128.455383 94.662781,138.988373 89.308350,153.159286 
	C87.499619,157.946213 84.199432,161.707138 79.095688,162.448776 
	C73.385429,163.278534 67.518875,163.161407 61.722195,163.128479 
	C60.854939,163.123550 59.267841,161.341827 59.249203,160.358612 
	C59.066513,150.721146 59.039665,141.075867 59.294983,131.441467 
	C59.324501,130.327499 61.186871,128.616730 62.461430,128.324280 
	C64.669449,127.817619 67.082520,128.204590 69.875999,128.235413 
z"/>
<path fill="#F6863E" opacity="1.000000" stroke="none" 
	d="
M485.233521,172.822388 
	C475.249512,173.329422 465.505646,173.641296 455.765747,174.047333 
	C454.898682,174.083450 454.057068,174.731689 453.103882,175.449112 
	C452.252899,175.869278 451.501678,175.935944 450.283508,175.845062 
	C449.568695,175.826096 449.320862,175.964676 449.073029,176.103241 
	C449.199097,187.214096 449.456940,198.326065 449.364532,209.435104 
	C449.339447,212.452240 448.411224,215.504501 447.570709,218.447311 
	C447.304962,219.377808 445.987732,220.650940 445.133667,220.664932 
	C440.018219,220.748703 434.826538,220.943344 429.820892,220.122375 
	C428.278900,219.869507 426.149048,216.558197 426.134277,214.633133 
	C425.913086,185.825378 425.582153,157.005707 426.238159,128.210739 
	C426.475830,117.777603 428.757385,107.355858 433.653717,97.685478 
	C438.597656,87.920944 435.613190,78.117630 427.178864,70.695221 
	C420.216156,64.567909 413.810242,57.791054 407.414215,51.058266 
	C406.618042,50.220219 406.809143,47.476852 407.595520,46.352985 
	C408.533508,45.012466 410.564606,43.875721 412.200653,43.759899 
	C413.542786,43.664886 415.713440,44.855339 416.284210,46.059998 
	C418.968201,51.724846 424.734192,53.690578 429.067596,57.336288 
	C437.988281,64.841362 448.946350,66.712997 459.934937,66.791321 
	C471.667267,66.874954 482.965973,64.296204 492.782776,56.869793 
	C498.598877,52.469898 504.473480,48.325562 508.511932,42.071815 
	C509.387970,40.715179 510.709320,39.233406 512.141541,38.754845 
	C513.865662,38.178741 516.093628,38.178478 517.762451,38.818279 
	C518.449097,39.081535 518.760925,41.824360 518.343567,43.157631 
	C517.432373,46.067863 516.386230,49.121044 514.612488,51.542423 
	C508.513855,59.867855 500.873199,66.487526 492.536560,72.702347 
	C485.836029,77.697411 477.182587,80.991920 472.968140,89.864777 
	C471.903839,91.078667 471.454590,92.042419 471.005341,93.006172 
	C471.005341,93.006172 471.000000,93.000000 470.641876,93.074448 
	C470.174896,95.094978 470.066040,97.041069 469.957184,98.987152 
	C469.944458,99.433968 469.931702,99.880791 469.762329,100.760246 
	C469.555359,101.294220 469.435944,101.435501 469.467255,101.489632 
	C469.575500,101.676743 469.736206,101.833511 469.876953,102.001831 
	C470.250519,104.958939 471.877991,106.063248 474.889435,106.106056 
	C479.947083,106.177940 484.998718,106.675575 490.567200,107.324371 
	C491.728546,108.097054 492.375580,108.539452 493.022614,108.981842 
	C493.022614,108.981842 493.000000,108.999695 493.002258,109.441231 
	C493.023438,114.619431 493.042328,119.356102 493.061218,124.092758 
	C492.576111,124.664314 492.091003,125.235870 490.880127,125.912598 
	C480.825928,125.678581 471.497131,125.127090 462.169495,125.146332 
	C459.773987,125.151268 457.382172,126.955727 454.988678,127.933479 
	C450.891785,127.744171 448.925629,129.516525 448.895050,133.799927 
	C448.862244,138.402405 448.223907,142.997620 448.084747,147.603104 
	C447.956024,151.861282 450.234344,153.986206 454.511078,153.982162 
	C462.795593,153.974350 471.081818,153.899841 479.363464,154.056870 
	C481.424805,154.095947 483.471436,154.912903 485.633636,155.981110 
	C486.150635,157.734344 486.558838,158.878784 486.967041,160.023224 
	C486.652679,162.733521 486.338318,165.443832 485.792694,168.724304 
	C485.708405,169.864105 485.855408,170.433731 486.002441,171.003326 
	C485.826538,171.553070 485.650665,172.102814 485.233521,172.822388 
z"/>
<path fill="#EA8A4B" opacity="1.000000" stroke="none" 
	d="
M455.457764,127.959274 
	C457.382172,126.955727 459.773987,125.151268 462.169495,125.146332 
	C471.497131,125.127090 480.825928,125.678581 490.625732,126.041397 
	C489.617706,126.708748 488.146545,127.886826 486.657349,127.910103 
	C476.415955,128.070175 466.170807,127.988777 455.457764,127.959274 
z"/>
<path fill="#EA8A4B" opacity="1.000000" stroke="none" 
	d="
M493.445190,124.013992 
	C493.042328,119.356102 493.023438,114.619431 493.011963,109.430267 
	C496.891144,112.252762 497.326538,120.295425 493.445190,124.013992 
z"/>
<path fill="#EC8C4C" opacity="1.000000" stroke="none" 
	d="
M470.250488,98.734879 
	C470.066040,97.041069 470.174896,95.094978 470.645782,93.076851 
	C470.853119,94.830742 470.698425,96.656677 470.250488,98.734879 
z"/>
<path fill="#E78C4C" opacity="1.000000" stroke="none" 
	d="
M486.985840,159.654541 
	C486.558838,158.878784 486.150635,157.734344 485.884430,156.276031 
	C486.352478,157.070068 486.678558,158.177963 486.985840,159.654541 
z"/>
<path fill="#EC8C4C" opacity="1.000000" stroke="none" 
	d="
M471.295837,92.868401 
	C471.454590,92.042419 471.903839,91.078667 472.702576,90.072693 
	C472.563477,90.930527 472.074890,91.830582 471.295837,92.868401 
z"/>
<path fill="#EA8A4B" opacity="1.000000" stroke="none" 
	d="
M492.979675,108.659195 
	C492.375580,108.539452 491.728546,108.097054 491.030151,107.337097 
	C491.631409,107.458542 492.284058,107.897545 492.979675,108.659195 
z"/>
<path fill="#EC8D50" opacity="1.000000" stroke="none" 
	d="
M486.013794,170.669098 
	C485.855408,170.433731 485.708405,169.864105 485.782928,169.145935 
	C486.011353,169.443222 486.018250,169.889053 486.013794,170.669098 
z"/>
<path fill="#EC8C4C" opacity="1.000000" stroke="none" 
	d="
M469.900391,101.750816 
	C469.736206,101.833511 469.575500,101.676743 469.467255,101.489632 
	C469.435944,101.435501 469.555359,101.294220 469.744720,101.095039 
	C469.897095,101.164734 469.910461,101.332275 469.900391,101.750816 
z"/>
<path fill="#EC8D50" opacity="1.000000" stroke="none" 
	d="
M449.303833,176.079681 
	C449.320862,175.964676 449.568695,175.826096 449.906860,175.852890 
	C449.997192,176.018280 449.534668,176.056122 449.303833,176.079681 
z"/>
<path fill="#F7863D" opacity="1.000000" stroke="none" 
	d="
M552.511841,219.921051 
	C547.045349,219.507370 545.821716,216.784424 545.867737,211.914871 
	C546.113220,185.937012 545.985474,159.955566 545.972778,133.975372 
	C545.969910,128.125427 544.120789,126.239571 538.353943,126.029892 
	C531.231201,125.770927 524.071167,124.941467 517.002319,125.434525 
	C513.202454,125.699570 512.726013,123.852242 512.119812,121.476715 
	C511.759247,120.063866 511.950531,118.495972 511.982208,116.999657 
	C512.157776,108.700546 512.916992,108.043106 521.130310,107.942574 
	C543.575378,107.667854 566.018982,107.259048 588.464539,107.050323 
	C592.582825,107.012024 596.749817,107.421280 600.807129,108.126007 
	C602.297363,108.384834 604.536438,109.960258 604.701843,111.171646 
	C605.214722,114.927116 605.101196,118.815422 604.747925,122.607170 
	C604.664429,123.503296 602.754395,124.788727 601.572449,124.925507 
	C596.645874,125.495605 591.677429,125.710121 586.722168,126.020752 
	C585.560913,126.093536 584.390991,126.016319 583.225525,126.035286 
	C570.617798,126.240417 569.029053,127.813332 569.027344,140.098465 
	C569.024048,164.246704 569.024902,188.394928 569.021423,212.543167 
	C569.020508,218.947159 568.002258,219.960434 561.447693,220.011642 
	C558.617065,220.033768 555.785950,219.991394 552.511841,219.921051 
z"/>
<path fill="#F7873E" opacity="1.000000" stroke="none" 
	d="
M465.694824,21.951784 
	C475.814423,23.758184 482.058716,32.970921 479.960205,42.361141 
	C478.209564,50.194775 470.071442,55.943420 462.054199,55.009678 
	C453.058258,53.961948 447.102753,47.611145 446.941833,38.894253 
	C446.746613,28.316360 453.602539,21.974457 465.694824,21.951784 
z"/>
</svg>